<?xml version="1.0" standalone="no"?>
<!DOCTYPE svg PUBLIC "-//W3C//DTD SVG 20010904//EN"
 "http://www.w3.org/TR/2001/REC-SVG-20010904/DTD/svg10.dtd">
<svg version="1.0" xmlns="http://www.w3.org/2000/svg"
 width="270.000000pt" height="270.000000pt" viewBox="0 0 270.000000 270.000000"
 preserveAspectRatio="xMidYMid meet">
<metadata>
Created by potrace 1.11, written by Peter Selinger 2001-2013
</metadata>
<g transform="translate(0.000000,270.000000) scale(0.100000,-0.100000)"
fill="#000000" stroke="none">
<path d="M950 2449 c-23 -12 -54 -22 -62 -21 -5 1 -8 -2 -8 -8 0 -5 -3 -9 -8
-7 -4 1 -14 -4 -22 -11 -8 -7 -24 -20 -35 -28 -11 -9 -13 -12 -5 -8 13 7 13 5
1 -9 -7 -9 -18 -14 -24 -10 -6 3 -7 1 -3 -5 4 -7 3 -12 -2 -12 -9 0 -24 -40
-21 -56 0 -4 -5 -10 -12 -15 -14 -9 -22 -129 -8 -129 6 0 5 -10 -2 -21 -8 -15
-8 -19 0 -15 6 4 11 1 11 -8 0 -8 7 -22 16 -30 8 -9 12 -21 8 -27 -4 -7 -3 -9
3 -6 5 4 19 -3 31 -13 12 -11 26 -20 32 -20 6 0 8 -6 4 -12 -5 -10 -4 -10 6
-1 10 9 19 9 39 -1 14 -7 34 -12 44 -11 9 2 17 0 17 -5 0 -4 7 -11 16 -14 8
-3 12 -2 9 4 -10 15 5 12 22 -6 12 -11 18 -12 23 -4 5 8 9 9 11 1 2 -6 15 -12
29 -15 14 -2 27 -5 30 -6 3 -2 8 -2 13 -1 4 0 7 -3 7 -8 0 -5 8 -8 18 -6 9 1
22 0 27 -4 10 -6 28 -10 58 -13 9 -1 17 -6 17 -10 0 -4 3 -7 8 -7 24 4 62 -2
58 -10 -3 -4 5 -7 17 -7 12 1 28 -2 35 -7 7 -6 15 -7 18 -4 3 3 17 -1 31 -8
14 -7 31 -11 38 -9 7 3 16 1 20 -5 3 -6 17 -11 31 -11 13 0 24 -6 24 -12 0 -9
4 -8 10 2 6 10 10 11 10 3 0 -8 13 -13 30 -13 17 0 30 -4 30 -8 0 -7 24 -12
68 -15 6 0 12 -3 12 -7 0 -5 18 -9 58 -12 6 -1 12 -4 12 -8 0 -4 6 -7 13 -7
22 -1 66 -11 77 -18 18 -11 120 -13 120 -3 0 6 7 8 15 4 8 -3 15 -1 15 4 0 6
4 9 9 7 11 -3 65 54 68 73 1 8 7 16 13 18 5 2 7 8 4 13 -3 6 0 16 6 24 8 9 8
15 2 15 -6 0 -9 8 -8 18 4 24 -14 62 -30 62 -7 0 -14 5 -16 11 -3 9 -10 9 -26
0 -12 -7 -28 -9 -34 -5 -7 4 -8 3 -4 -4 4 -7 3 -12 -2 -12 -5 0 -9 -19 -8 -42
1 -55 -21 -80 -61 -69 -18 5 -27 13 -25 24 2 10 -1 17 -6 17 -14 0 -5 92 10
101 7 5 10 9 5 9 -4 0 5 13 19 30 15 16 31 27 35 24 5 -3 9 2 9 10 0 9 6 13
14 10 8 -3 17 -1 21 5 4 8 12 8 27 0 15 -8 19 -8 14 0 -10 15 7 14 23 -1 11
-11 12 -10 6 2 -7 12 -6 13 7 3 8 -7 18 -10 21 -6 4 3 9 -2 13 -11 3 -9 10
-13 15 -10 5 3 9 0 9 -6 0 -6 4 -9 9 -6 12 8 51 -73 54 -114 2 -19 -1 -48 -5
-65 -5 -16 -11 -41 -14 -54 -3 -14 -13 -31 -22 -39 -11 -9 -12 -11 -2 -6 11 6
10 2 -3 -13 -9 -11 -14 -23 -10 -26 3 -4 1 -7 -5 -7 -7 0 -12 -7 -12 -15 0 -7
-8 -19 -17 -24 -10 -6 -15 -11 -10 -11 4 0 -1 -8 -10 -19 -10 -10 -29 -33 -43
-50 -43 -56 -85 -96 -95 -93 -5 2 -7 0 -3 -4 4 -4 -4 -18 -18 -31 -14 -12 -21
-23 -17 -23 4 -1 -3 -7 -17 -15 -14 -8 -22 -14 -17 -15 4 0 -1 -8 -10 -18 -10
-11 -21 -17 -25 -15 -5 2 -8 -1 -8 -7 0 -16 -56 -71 -64 -63 -3 4 -6 0 -6 -8
0 -8 -15 -28 -34 -46 -19 -17 -32 -34 -29 -37 4 -3 0 -6 -9 -6 -8 0 -21 -11
-28 -25 -7 -14 -24 -32 -37 -40 -14 -9 -21 -21 -17 -28 4 -7 4 -9 -1 -5 -9 8
-35 -15 -35 -32 0 -6 -4 -9 -9 -6 -5 3 -12 -5 -15 -19 -4 -17 -11 -22 -22 -18
-8 3 -14 2 -13 -3 1 -5 -3 -20 -9 -34 -6 -14 -11 -18 -12 -10 0 8 -7 2 -15
-15 -19 -40 -38 -68 -50 -77 -5 -4 -7 -8 -2 -8 4 0 -1 -12 -10 -27 -10 -15
-18 -30 -18 -33 0 -3 -2 -4 -5 -3 -4 1 -7 -9 -8 -23 -5 -55 -7 -64 -13 -64 -3
0 -5 -10 -5 -22 1 -13 -2 -31 -6 -40 -5 -11 -5 -18 1 -18 7 0 7 -9 1 -25 -9
-24 -6 -29 14 -26 5 1 4 -4 -2 -12 -9 -10 -9 -16 1 -26 9 -9 5 -11 -23 -7 -69
9 -110 19 -110 25 0 4 -15 8 -32 9 -18 2 -37 7 -42 12 -4 4 -14 6 -21 4 -7 -3
-16 -1 -19 5 -4 6 -13 8 -21 4 -8 -3 -15 0 -15 7 0 7 -6 10 -12 7 -7 -2 -24 0
-38 6 -14 5 -38 11 -55 13 -16 3 -32 9 -33 14 -2 6 -8 8 -13 4 -5 -3 -9 1 -9
8 0 9 -3 9 -10 -2 -5 -8 -10 -10 -10 -3 0 6 -11 10 -25 8 -14 -1 -25 2 -25 6
0 5 -11 9 -24 9 -14 0 -28 5 -32 11 -4 8 -9 7 -15 -2 -6 -11 -9 -9 -15 5 -5
14 -9 15 -15 4 -7 -10 -9 -11 -9 0 0 7 -4 10 -10 7 -5 -3 -10 -2 -10 2 0 5
-14 10 -32 11 -18 2 -36 8 -40 15 -6 9 -8 8 -8 -3 0 -12 -2 -13 -9 -1 -5 7
-14 10 -20 7 -6 -4 -11 -2 -11 3 0 6 -3 10 -7 9 -14 -2 -48 15 -60 31 -7 9
-13 12 -13 7 0 -6 -6 -1 -14 9 -8 11 -12 23 -10 27 3 5 0 8 -5 8 -6 0 -10 3
-10 8 1 4 0 9 -1 12 -7 16 -6 77 2 87 6 7 5 14 -1 18 -7 4 -6 16 4 36 9 16 13
29 10 29 -2 0 6 20 20 44 13 24 21 47 17 51 -4 5 -1 5 6 1 7 -4 12 -1 12 8 0
9 5 16 12 16 6 0 9 3 5 6 -3 3 7 20 24 38 16 17 32 39 35 49 3 9 10 15 15 11
6 -3 9 2 7 12 -2 10 2 19 7 19 11 0 88 75 77 75 -3 0 8 11 26 23 17 13 29 27
25 30 -3 4 2 9 11 13 9 3 16 12 16 20 0 7 6 11 14 8 8 -3 16 3 19 16 4 14 10
19 18 14 7 -4 10 -3 6 3 -8 13 27 46 37 36 4 -5 6 -1 4 7 -2 9 3 14 12 12 8
-2 12 0 8 4 -10 9 12 35 23 28 5 -3 9 4 9 15 0 12 6 21 14 21 7 0 21 11 30 25
9 14 22 23 28 19 7 -4 8 -3 4 5 -5 7 4 23 21 38 15 15 27 30 26 34 -2 4 6 11
17 14 12 4 20 12 19 18 -3 26 2 38 12 32 6 -4 1 8 -12 27 -22 34 -49 42 -78
24 -11 -7 -12 -6 -6 5 8 12 6 12 -8 0 -9 -7 -14 -18 -10 -24 4 -7 0 -8 -13 -3
-10 4 -15 4 -11 0 4 -4 -1 -13 -11 -21 -9 -8 -11 -11 -3 -7 9 5 12 3 7 -4 -4
-7 -14 -12 -22 -12 -8 0 -13 -3 -12 -7 2 -5 -23 -35 -55 -67 -31 -33 -57 -64
-57 -69 0 -6 -3 -7 -7 -4 -3 4 -16 -7 -28 -23 -12 -16 -25 -27 -28 -23 -4 3
-7 2 -7 -4 0 -5 -16 -26 -35 -46 -19 -20 -35 -33 -35 -30 0 4 -6 -2 -14 -12
-8 -11 -12 -23 -9 -28 2 -4 -1 -6 -9 -5 -7 2 -12 -3 -11 -9 2 -7 -1 -13 -6
-13 -4 0 -22 -13 -39 -30 -18 -16 -29 -30 -27 -30 3 0 -5 -11 -17 -24 -13 -13
-27 -21 -32 -18 -5 3 -6 1 -3 -5 3 -5 -5 -21 -19 -36 -14 -15 -22 -27 -17 -27
4 0 -2 -7 -13 -15 -10 -8 -15 -15 -9 -15 5 0 -1 -7 -13 -16 -12 -8 -22 -22
-22 -30 0 -8 -4 -14 -9 -14 -5 0 -12 -11 -15 -25 -4 -14 -11 -25 -17 -25 -6 0
-8 -4 -4 -9 3 -5 1 -12 -5 -16 -6 -4 -8 -11 -5 -16 4 -5 1 -9 -5 -9 -6 0 -9
-4 -5 -9 3 -5 1 -12 -4 -16 -6 -3 -8 -12 -5 -19 3 -8 0 -17 -6 -21 -8 -5 -7
-11 2 -23 10 -12 10 -14 1 -8 -18 10 -18 -125 0 -143 10 -11 9 -13 -1 -7 -14
8 25 -71 39 -80 5 -3 7 -10 4 -15 -4 -5 -1 -9 5 -9 6 0 8 -5 4 -12 -4 -7 -3
-8 5 -4 7 5 20 -3 32 -18 11 -14 27 -26 35 -26 8 0 14 -5 14 -11 0 -5 4 -8 9
-4 5 3 15 0 23 -7 7 -7 24 -14 38 -16 14 -1 31 -3 38 -4 6 -1 12 -6 12 -11 0
-6 3 -7 6 -4 4 3 15 2 25 -4 14 -7 19 -6 19 3 0 10 2 10 9 0 5 -8 20 -15 35
-15 14 -1 26 -6 26 -10 0 -5 5 -5 10 -2 5 3 10 2 10 -2 0 -8 23 -13 68 -16 6
0 12 -5 12 -10 0 -5 9 -7 20 -4 11 3 20 0 20 -6 0 -8 3 -7 9 1 6 11 10 10 15
-4 3 -9 9 -14 13 -11 3 3 21 0 40 -8 18 -8 31 -10 28 -5 -3 5 10 3 30 -5 19
-9 35 -12 35 -9 0 4 6 2 13 -4 10 -8 66 -24 82 -23 2 0 22 -6 44 -14 22 -7 42
-11 45 -8 3 4 6 1 6 -6 0 -7 4 -10 10 -6 5 3 25 -1 44 -9 19 -8 37 -12 40 -9
3 3 12 0 20 -6 8 -7 20 -10 25 -7 5 4 14 -2 20 -11 6 -11 11 -13 11 -5 0 8 5
10 13 5 6 -4 21 -9 32 -10 11 -2 27 -6 35 -10 8 -3 26 -8 40 -10 13 -2 30 -9
37 -15 9 -7 13 -7 13 1 0 7 8 8 26 1 31 -12 37 -12 30 -2 -3 5 1 9 9 9 8 0 15
-4 15 -8 0 -4 15 -2 33 3 49 17 117 52 117 61 0 5 5 5 10 2 6 -4 9 -3 8 2 -3
9 37 64 43 60 2 -1 3 0 2 2 -1 2 3 13 9 25 7 11 13 24 14 29 1 4 3 9 4 12 1 3
3 9 4 14 0 5 4 13 9 17 11 11 8 26 -4 18 -8 -4 -8 -1 -1 12 29 57 -24 165 -98
201 -23 11 -75 18 -92 13 -5 -1 -17 -3 -28 -4 -12 0 -24 -6 -28 -11 -4 -6 -19
-16 -34 -24 -15 -8 -26 -17 -25 -20 1 -3 -5 -17 -13 -31 -22 -38 -31 -89 -19
-105 7 -10 9 -17 9 -34 0 -5 13 -14 29 -21 24 -9 34 -9 58 4 15 8 24 15 19 16
-5 0 -3 7 4 15 10 12 10 15 -1 15 -9 0 -10 3 -4 8 6 4 10 13 11 20 1 6 2 19 3
27 1 17 39 35 58 28 7 -3 10 -9 7 -14 -3 -5 2 -9 11 -9 11 0 15 -5 11 -15 -3
-8 -1 -15 4 -15 5 0 5 -12 0 -29 -4 -16 -6 -32 -3 -35 15 -15 -76 -114 -101
-110 -9 1 -16 -1 -16 -6 0 -4 -20 -7 -45 -7 -25 1 -45 5 -45 10 0 4 -7 7 -15
7 -8 0 -15 5 -15 11 0 5 -4 8 -9 5 -8 -5 -40 25 -56 53 -6 10 -4 12 6 7 10 -6
10 -4 -1 6 -23 20 -28 49 -15 81 4 11 3 17 -5 17 -9 0 -9 4 -2 13 5 6 13 27
17 44 3 18 11 33 16 33 6 0 7 5 4 10 -3 6 3 24 15 40 12 17 18 30 14 30 -4 0
2 8 12 17 10 10 20 24 21 30 2 7 12 22 22 32 11 11 27 31 36 45 10 14 21 23
26 20 5 -3 6 3 2 12 -4 12 -3 15 5 10 7 -4 12 -3 12 2 0 13 47 62 60 62 5 0 9
4 7 9 -1 4 23 34 55 65 31 31 55 56 53 56 -2 0 40 44 92 97 52 54 118 124 147
157 28 32 61 70 74 83 13 13 21 27 17 32 -3 5 4 12 15 16 11 3 20 15 20 25 0
11 8 23 17 29 10 5 15 13 11 16 -4 4 0 14 8 22 8 8 12 19 9 24 -4 5 -2 9 4 9
9 0 18 21 27 63 1 4 3 8 4 10 4 3 11 49 11 71 0 11 5 28 10 39 8 14 8 17 0 13
-6 -4 -10 3 -9 16 2 55 -2 79 -14 72 -8 -5 -9 -2 -5 10 4 10 1 19 -8 22 -8 4
-13 10 -10 14 3 5 -6 20 -20 34 -14 14 -25 30 -25 36 0 6 -4 8 -10 5 -5 -3
-10 -2 -10 3 0 5 -13 15 -30 22 -16 7 -27 17 -23 23 3 6 1 7 -6 3 -6 -4 -18
-2 -26 4 -8 7 -15 9 -15 5 0 -4 -8 -1 -17 6 -15 12 -16 12 -8 -1 8 -13 7 -13
-10 0 -10 8 -21 14 -24 14 -3 -1 -16 2 -29 7 -30 11 -35 11 -27 0 3 -5 -8 -3
-24 5 -29 14 -58 23 -91 28 -9 1 -20 5 -27 9 -6 4 -23 8 -37 9 -14 1 -26 6
-26 11 0 5 -9 7 -20 4 -11 -3 -20 -1 -20 5 0 5 -5 6 -10 3 -6 -4 -17 -1 -25 5
-8 7 -21 10 -29 7 -8 -3 -16 -2 -18 4 -3 9 -39 19 -80 22 -10 1 -18 5 -18 10
0 4 -4 5 -10 2 -5 -3 -10 -2 -10 2 0 5 -12 9 -27 10 -16 0 -41 7 -58 14 -16 7
-34 11 -38 10 -4 0 -17 4 -29 10 -16 8 -19 8 -13 -1 6 -9 3 -9 -13 -1 -12 6
-24 16 -28 22 -4 8 -9 7 -15 -2 -6 -9 -9 -10 -9 -2 0 6 -8 10 -17 8 -10 -1
-23 1 -29 6 -6 5 -23 10 -38 11 -14 1 -26 5 -26 9 0 3 -6 6 -12 7 -16 1 -53
10 -53 12 0 3 -50 10 -97 13 -30 2 -48 -1 -48 -7 0 -7 -3 -7 -8 0 -4 7 -13 8
-22 3z m63 -122 c7 11 45 9 77 -5 14 -5 28 -8 33 -5 4 2 7 0 7 -5 0 -6 9 -8
20 -5 11 3 20 1 20 -4 0 -10 8 -12 55 -15 14 -1 25 -5 25 -8 0 -3 12 -7 27 -8
15 -1 29 -6 32 -10 3 -4 19 -9 34 -10 16 -1 34 -5 40 -9 13 -8 28 -11 65 -15
12 -1 22 -6 22 -11 0 -4 5 -5 10 -2 6 3 10 1 10 -5 0 -6 4 -8 10 -5 5 3 19 1
30 -5 15 -8 20 -8 21 2 0 10 2 10 6 1 2 -7 13 -13 22 -13 10 0 21 -3 25 -7 3
-4 14 -8 23 -9 9 -2 28 -6 42 -10 14 -4 29 -7 34 -6 4 1 7 -2 7 -6 0 -4 8 -8
18 -9 48 -3 76 -11 80 -22 2 -6 9 -9 15 -5 7 3 4 -1 -5 -9 -10 -8 -15 -17 -11
-21 4 -4 -2 -9 -14 -12 -12 -3 -20 -11 -17 -18 2 -6 -4 -21 -14 -31 -9 -11
-16 -28 -14 -37 2 -10 -1 -18 -7 -18 -5 0 -8 -9 -6 -20 2 -11 -1 -22 -7 -26
-7 -4 -5 -10 3 -16 11 -7 11 -11 1 -15 -6 -2 -10 -9 -6 -14 8 -13 -10 -11 -25
4 -11 10 -12 9 -6 -1 6 -11 3 -12 -14 -3 -11 7 -21 9 -21 5 0 -3 -6 -1 -13 5
-8 6 -17 8 -20 4 -4 -3 -7 -2 -7 3 0 10 -8 12 -67 16 -17 2 -29 6 -26 10 2 5
-6 9 -19 10 -36 2 -42 3 -53 9 -14 8 -68 23 -78 21 -4 -1 -24 5 -43 13 -20 8
-47 15 -60 15 -13 0 -24 4 -24 8 0 4 -14 9 -32 10 -17 2 -38 8 -45 14 -7 6
-13 8 -13 4 0 -4 -14 1 -31 10 -17 8 -28 11 -24 5 4 -8 -1 -8 -17 -2 -38 16
-63 24 -70 25 -3 1 -10 4 -14 8 -4 4 -13 3 -21 -3 -10 -9 -13 -8 -13 0 0 7 -4
9 -10 6 -5 -3 -10 -1 -10 4 0 6 -11 11 -24 11 -14 0 -31 9 -39 20 -8 11 -17
17 -22 12 -4 -4 -5 1 -2 10 3 10 2 20 -4 24 -6 3 -6 11 -1 17 4 7 7 22 6 35 0
12 3 22 7 22 5 0 8 3 7 8 -7 20 72 90 95 84 4 -1 7 3 7 9 0 8 4 8 14 0 8 -7
17 -8 19 -4z"/>
<path d="M1196 1790 c-21 -7 -50 -60 -33 -60 7 0 6 -4 -3 -10 -9 -6 -10 -10
-3 -10 6 0 15 -9 18 -20 4 -11 10 -18 15 -15 5 3 11 1 15 -5 4 -6 11 -8 16 -5
5 4 9 2 9 -4 0 -5 9 -8 20 -6 11 2 20 0 20 -6 0 -5 3 -8 8 -8 28 5 52 -2 46
-13 -5 -9 -2 -9 9 1 12 9 17 10 17 2 0 -7 5 -9 10 -6 6 4 17 1 25 -5 8 -6 19
-9 25 -5 5 3 10 -2 10 -12 0 -10 3 -14 8 -8 8 12 27 13 38 3 4 -5 18 -8 31 -8
13 0 22 -4 19 -8 -3 -5 8 -8 24 -7 17 1 30 -1 30 -5 0 -4 6 -7 13 -8 16 -2 68
-12 85 -18 7 -2 16 -4 20 -5 4 0 13 -5 20 -11 6 -6 12 -7 12 -4 0 4 9 2 20 -4
20 -11 51 -1 75 24 12 13 13 56 1 75 -8 13 -72 44 -79 39 -2 -2 -12 4 -22 12
-11 9 -16 10 -11 3 4 -7 2 -13 -3 -13 -6 0 -11 5 -11 11 0 5 -4 8 -9 4 -5 -3
-12 -1 -16 5 -3 5 -19 10 -34 10 -15 0 -32 5 -39 12 -7 7 -12 9 -12 5 0 -3
-11 -2 -25 3 -27 10 -71 21 -92 22 -7 1 -13 6 -13 11 0 5 -9 7 -19 4 -11 -3
-28 0 -38 7 -10 6 -31 13 -48 15 -16 1 -34 6 -39 11 -5 5 -15 6 -22 3 -8 -3
-14 -1 -14 4 0 10 -48 13 -74 3z"/>
<path d="M1038 1629 c-10 -10 -16 -19 -13 -19 3 0 1 -9 -5 -20 -8 -15 -8 -20
2 -20 9 0 9 -3 -2 -10 -13 -8 -12 -10 3 -10 10 0 16 -3 14 -7 -5 -8 17 -34 28
-33 32 1 45 -1 41 -8 -2 -4 8 -7 22 -6 15 1 32 -1 37 -5 6 -3 15 -6 20 -8 6
-1 21 -5 35 -8 14 -4 31 -7 38 -7 6 -1 12 -6 12 -11 0 -5 9 -7 20 -4 11 3 20
1 20 -3 0 -5 8 -7 18 -6 9 2 20 -1 23 -5 3 -5 17 -10 32 -11 15 -1 27 -6 27
-10 0 -4 8 -7 18 -7 9 0 29 -2 44 -4 39 -6 71 30 64 73 -5 33 -20 50 -43 50
-7 0 -13 4 -13 8 0 8 -14 12 -52 13 -10 0 -18 4 -18 10 0 5 -3 8 -7 8 -26 -4
-43 2 -37 14 5 8 2 8 -9 -2 -9 -7 -17 -9 -17 -4 0 5 -6 10 -12 11 -25 2 -63 9
-80 16 -10 3 -26 9 -35 13 -10 3 -24 5 -30 4 -7 -1 -13 2 -13 8 0 5 -8 7 -19
4 -10 -3 -22 0 -25 6 -5 7 -15 7 -31 1 -16 -6 -25 -6 -25 0 0 15 -13 11 -32
-11z"/>
<path d="M912 1492 c-12 -2 -20 -8 -17 -13 4 -5 1 -9 -5 -9 -6 0 -8 -4 -5 -10
3 -5 2 -10 -2 -10 -15 0 -12 -38 3 -50 7 -7 11 -17 7 -24 -3 -6 -2 -8 2 -3 5
4 19 0 31 -8 17 -11 24 -12 27 -2 4 9 6 9 6 0 1 -7 9 -13 19 -13 10 0 24 -6
31 -12 11 -11 12 -10 6 1 -5 8 3 6 21 -5 21 -14 26 -15 19 -4 -8 13 -6 13 8 2
9 -8 21 -11 27 -7 5 3 10 1 10 -4 0 -6 16 -11 35 -11 19 0 35 -4 35 -8 0 -9 8
-11 55 -14 14 -1 25 -6 25 -10 0 -4 9 -8 19 -8 11 0 22 -6 24 -12 4 -10 6 -10
6 -1 1 9 10 8 35 -2 18 -8 36 -11 40 -8 3 4 6 1 6 -5 0 -6 6 -9 14 -6 8 3 17
0 21 -5 3 -6 11 -9 16 -5 5 3 15 1 22 -4 15 -12 47 -12 47 0 0 5 5 6 10 3 6
-3 10 -1 10 5 0 6 4 9 8 6 5 -3 9 0 9 7 0 7 4 20 8 30 4 11 3 17 -5 17 -7 0
-10 6 -7 14 7 17 -33 46 -63 46 -11 0 -20 4 -20 8 0 4 -14 9 -31 10 -17 1 -40
9 -51 16 -11 8 -27 12 -34 9 -8 -3 -21 0 -29 7 -8 7 -15 9 -15 5 0 -4 -12 0
-26 10 -15 9 -23 11 -19 4 6 -8 4 -10 -6 -3 -8 4 -23 10 -34 11 -11 2 -21 8
-23 13 -2 5 -10 6 -18 3 -8 -3 -20 0 -28 6 -7 6 -20 9 -28 6 -9 -4 -22 0 -29
7 -8 7 -25 13 -39 13 -14 -1 -27 2 -30 6 -6 9 -68 16 -98 11z"/>
<path d="M780 1337 c0 -4 -5 -5 -10 -2 -6 3 -13 -1 -16 -9 -3 -9 -9 -14 -13
-12 -4 3 -7 -13 -7 -34 0 -21 3 -37 8 -34 4 3 8 -2 8 -11 0 -9 5 -13 10 -10 6
3 10 3 10 -2 0 -4 11 -13 25 -20 14 -6 23 -7 19 -2 -3 5 4 9 15 9 12 0 21 -4
21 -9 0 -5 15 -12 33 -16 17 -4 35 -9 40 -10 4 -1 19 -3 33 -4 16 -1 23 -5 18
-13 -5 -8 -2 -9 11 -5 9 4 24 2 31 -4 8 -6 14 -8 14 -4 0 4 8 1 17 -6 10 -9
14 -9 10 -2 -5 9 0 8 19 -2 15 -7 33 -11 40 -8 8 3 14 0 14 -6 0 -6 3 -10 8
-10 4 1 9 0 12 -1 21 -9 62 -4 80 10 17 13 23 27 22 51 0 18 -6 35 -11 37 -6
2 -8 9 -4 15 4 6 0 8 -10 4 -10 -4 -17 -2 -17 4 0 6 -7 9 -15 5 -8 -3 -15 -1
-15 5 0 6 -6 9 -14 6 -8 -3 -16 -1 -18 5 -4 10 -41 19 -90 21 -10 1 -18 5 -18
10 0 4 -4 6 -8 3 -5 -3 -20 1 -35 9 -14 7 -28 10 -32 7 -3 -4 -10 0 -15 8 -8
13 -10 13 -10 1 0 -11 -4 -9 -15 5 -8 10 -15 14 -15 7 0 -15 -30 -5 -48 16 -8
9 -11 11 -8 5 4 -8 -3 -11 -18 -10 -13 0 -22 4 -20 8 3 4 -5 6 -16 5 -11 -1
-20 -5 -20 -10z"/>
</g>
</svg>
